# xmcd CD database file
# Copyright (C) 1997 Ti Kan
# 
# Track frame offsets:
#     150
#     24368
#     42318
#     79215
#     101683
#     115065
#     143373
#     146003
#     158413
#     169888
#     189725
#     208300
#     228545
#     252450
#     266350
# 
# Disc length: 3947 seconds
# 
# Revision: 1
# Processed by: cddbd v1.4b41PL1 Copyright (c) Steve Scherf et al.
# Submitted via: DiscPlay 4.0.4
# 
DISCID=cd0f690f
DTITLE=De Bluesign Oberlandler - Live
DYEAR=1900
DGENRE=
TTITLE0=Bluesig's Oberland
TTITLE1=Oan Dog Z'spaet
TTITLE2=Gospel
TTITLE3=Mensch Sei A Bissl Gscheid
TTITLE4=New Orleans Boogie
TTITLE5=Knecht Bei De Bauern
TTITLE6=Kleine Gaudi
TTITLE7=La Cucaracha
TTITLE8=S'Gstanzl Vom Auto
TTITLE9=Da Letzte Tanz
TTITLE10=Weit Furt
TTITLE11=Glenn Miller
TTITLE12=Sattl Mein Gaul
TTITLE13=Jonny Cash
TTITLE14=Gfaengnislied and Polka
EXTD=
EXTT0=
EXTT1=
EXTT2=
EXTT3=
EXTT4=
EXTT5=
EXTT6=
EXTT7=
EXTT8=
EXTT9=
EXTT10=
EXTT11=
EXTT12=
EXTT13=
EXTT14=
PLAYORDER=
